<!-- Generated by IcoMoon.io -->
<svg version="1.1" xmlns="http://www.w3.org/2000/svg" width="36" height="32" viewBox="0 0 36 32">
<title>case-icon</title>
<path fill="#e1e1e1" d="M35.993 7.328v6.23c-0.258 1.053-0.796 1.955-1.53 2.653l-0.002 0.002c-1.048 1.002-2.472 1.619-4.041 1.619-0.013 0-0.026 0-0.038 0h-9.69v-1.897c-0.003-0.804-0.654-1.455-1.457-1.457h-2.477c-0.804 0.003-1.455 0.654-1.457 1.457v1.897h-9.692c-0.011 0-0.024 0-0.037 0-1.568 0-2.992-0.617-4.043-1.62l0.002 0.002c-0.736-0.7-1.274-1.602-1.524-2.618l-0.008-0.037v-6.231c0.004-1.347 1.095-2.438 2.442-2.443h31.108c1.347 0.004 2.438 1.095 2.442 2.442v0zM19.235 21.186c0.13-0.001 0.234-0.106 0.235-0.235v-5.015c-0.001-0.13-0.106-0.235-0.235-0.236h-2.477c-0.13 0.002-0.234 0.106-0.236 0.236v5.016c0.002 0.13 0.107 0.234 0.236 0.235v0zM35.307 17.095c-1.267 1.212-2.989 1.959-4.884 1.959-0.014 0-0.027 0-0.041 0h-9.689v1.897c-0.003 0.804-0.654 1.454-1.457 1.457h-2.477c-0.804-0.003-1.454-0.653-1.457-1.457v-1.897h-9.692c-0.011 0-0.025 0-0.039 0-1.896 0-3.618-0.746-4.887-1.962l0.003 0.002c-0.244-0.234-0.468-0.483-0.674-0.747l-0.012-0.016v13.225c0.004 1.348 1.095 2.439 2.442 2.443h31.108c1.347-0.004 2.439-1.095 2.442-2.443v-13.226c-0.217 0.28-0.442 0.529-0.683 0.761l-0.002 0.002zM23.628 0.716c-0.441-0.442-1.051-0.716-1.725-0.716-0.001 0-0.002 0-0.003 0h-7.808c0 0 0 0 0 0-1.349 0-2.443 1.094-2.443 2.443v1.221h2.076v-1.221c0.001-0.202 0.165-0.366 0.367-0.367h7.809c0.202 0.001 0.366 0.165 0.366 0.367v1.221h2.076v-1.221c0-0.001 0-0.002 0-0.002 0-0.674-0.273-1.283-0.715-1.724v0z"></path>
</svg>
