<!-- Generated by IcoMoon.io -->
<svg version="1.1" xmlns="http://www.w3.org/2000/svg" width="32" height="32" viewBox="0 0 32 32">
<title>communication-icon</title>
<path fill="#e1e1e1" d="M11.549 0h-7.139c-2.435 0.003-4.407 1.976-4.41 4.41v7.139c0.003 2.435 1.976 4.407 4.41 4.41h7.14c2.435-0.003 4.407-1.976 4.41-4.41v-7.139c-0.007-2.433-1.977-4.403-4.409-4.41h-0.001zM14.706 11.549c-0.005 1.746-1.419 3.16-3.165 3.165h-7.14c-1.746-0.005-3.16-1.419-3.165-3.165v-7.14c0.005-1.746 1.419-3.16 3.165-3.165h7.149c1.746 0.005 3.16 1.419 3.165 3.165v7.14z"></path>
<path fill="#e1e1e1" d="M27.581 16.040h-7.139c-2.435 0.003-4.407 1.976-4.41 4.41v7.14c0.003 2.435 1.976 4.407 4.41 4.41h7.14c2.435-0.003 4.407-1.976 4.41-4.41v-7.148c-0.004-2.431-1.975-4.401-4.407-4.401-0.001 0-0.002 0-0.003 0v0zM30.746 27.581c-0.005 1.746-1.419 3.16-3.165 3.165h-7.14c-1.746-0.005-3.16-1.419-3.165-3.165v-7.14c0.005-1.746 1.419-3.16 3.165-3.165h7.14c1.746 0.005 3.16 1.419 3.165 3.165v0z"></path>
<path fill="#e1e1e1" d="M12.768 29.723c-4.776-1.197-8.49-4.811-9.809-9.436l-0.023-0.096h2.089c0.324-0.026 0.577-0.294 0.577-0.622s-0.253-0.597-0.574-0.622h-3.648l0.16 0.756c1.233 5.543 5.446 9.856 10.834 11.215l0.102 0.022c0.042 0.009 0.090 0.015 0.14 0.018h0.002c0.292-0.001 0.537-0.204 0.604-0.476l0.001-0.004c0.013-0.047 0.021-0.101 0.021-0.157 0-0.289-0.2-0.532-0.47-0.596l-0.004-0.001z"></path>
<path fill="#e1e1e1" d="M18.512 3.548c4.776 1.197 8.49 4.811 9.809 9.436l0.023 0.096h-2.089c-0.324 0.026-0.577 0.294-0.577 0.622s0.253 0.597 0.574 0.622h3.656l-0.16-0.756c-1.233-5.543-5.446-9.856-10.834-11.215l-0.102-0.022c-0.038-0.008-0.082-0.013-0.126-0.013-0.347 0-0.628 0.281-0.628 0.628 0 0.284 0.189 0.524 0.448 0.602l0.004 0.001z"></path>
<path fill="#e1e1e1" d="M11.674 6.313h-3.388v-2.106c0-0.172-0.14-0.312-0.312-0.312s-0.312 0.14-0.312 0.312v0 2.107h-3.385c-0.172 0-0.312 0.14-0.312 0.312s0.14 0.312 0.312 0.312v0h1.145c0.24 1.152 0.724 2.165 1.399 3.021l-0.012-0.015c0.222 0.295 0.449 0.556 0.693 0.8v0c-0.482 0.414-1.106 0.675-1.79 0.702h-0.006c-0.172 0-0.312 0.14-0.312 0.312s0.14 0.312 0.312 0.312v0c0.874-0.037 1.662-0.374 2.271-0.91l-0.004 0.004c0.604 0.534 1.393 0.872 2.26 0.907h0.007c0.172 0 0.312-0.14 0.312-0.312s-0.14-0.312-0.312-0.312v0c-0.689-0.032-1.312-0.292-1.8-0.706l0.004 0.004c0.242-0.245 0.469-0.506 0.679-0.78l0.014-0.020c0.664-0.84 1.149-1.853 1.379-2.959l0.008-0.046h1.145c0.172 0 0.312-0.14 0.312-0.312s-0.14-0.312-0.312-0.312v0zM8.642 9.558c-0.215 0.281-0.434 0.531-0.667 0.765v0c-0.237-0.233-0.455-0.483-0.655-0.748l-0.012-0.017c-0.588-0.737-1.024-1.622-1.245-2.588l-0.008-0.044h3.85c-0.238 1.010-0.676 1.893-1.273 2.646l0.011-0.014z"></path>
<path fill="#e1e1e1" d="M24.3 20.246v0c-0.009-0.018-0.009-0.027-0.018-0.035 0-0.009-0.009-0.018-0.009-0.027-0.009-0.009-0.009-0.018-0.018-0.027s-0.009-0.018-0.018-0.027-0.018-0.009-0.018-0.018c-0.009-0.009-0.018-0.018-0.027-0.018-0.007-0.001-0.013-0.004-0.018-0.009v0c-0.009-0.009-0.018-0.009-0.035-0.018v0c-0.009 0-0.009 0-0.018-0.009-0.009 0-0.027-0.009-0.035-0.009h-0.116c-0.009 0-0.027 0.009-0.035 0.009s-0.009 0-0.018 0.009v0c-0.009 0.009-0.027 0.009-0.035 0.018-0.007 0.001-0.013 0.004-0.018 0.009v0c-0.009 0.009-0.018 0.018-0.027 0.018-0.009 0.009-0.018 0.009-0.018 0.018-0.009 0.009-0.009 0.018-0.018 0.027s-0.009 0.018-0.018 0.027c-0.006 0.006-0.009 0.014-0.009 0.023 0 0.001 0 0.003 0 0.004v0c-0.009 0.009-0.009 0.018-0.018 0.027v0l-2.894 7.299c-0.013 0.033-0.021 0.072-0.021 0.112 0 0.131 0.082 0.243 0.197 0.288l0.002 0.001c0.028 0.012 0.061 0.018 0.096 0.018 0.007 0 0.014 0 0.020-0.001h-0.001c0 0 0.001 0 0.001 0 0.131 0 0.244-0.080 0.292-0.194l0.001-0.002 0.809-2.045h3.583l0.809 2.045c0.046 0.116 0.157 0.196 0.287 0.196 0.002 0 0.005 0 0.007 0v0c0.042-0.002 0.081-0.008 0.119-0.019l-0.004 0.001c0.117-0.045 0.199-0.157 0.199-0.288 0-0.040-0.008-0.079-0.022-0.114l0.001 0.002zM22.468 25.118l1.547-3.902 1.547 3.902z"></path>
</svg>
