<!-- Generated by IcoMoon.io -->
<svg version="1.1" xmlns="http://www.w3.org/2000/svg" width="47" height="32" viewBox="0 0 47 32">
<title>education-svg</title>
<path fill="#509437" d="M7.061 0.313c-0.488 0-0.975 0.053-1.447 0.157-0.459 0.102-0.909 0.253-1.336 0.45-0.42 0.193-0.821 0.432-1.193 0.708-0.369 0.275-0.71 0.589-1.015 0.933-0.26 0.294-0.496 0.613-0.7 0.948-0.206 0.338-0.383 0.697-0.526 1.065-0.145 0.375-0.256 0.766-0.331 1.162-0.076 0.405-0.115 0.822-0.115 1.238 0 0.452 0.046 0.904 0.135 1.343 0.088 0.428 0.218 0.848 0.388 1.25 0.167 0.395 0.374 0.775 0.614 1.132 0.238 0.353 0.512 0.685 0.814 0.986s0.633 0.575 0.986 0.814c0.356 0.241 0.737 0.447 1.132 0.614 0.402 0.17 0.823 0.301 1.25 0.388 0.439 0.090 0.891 0.135 1.343 0.135s0.904-0.046 1.343-0.135c0.428-0.088 0.848-0.218 1.25-0.388 0.395-0.167 0.775-0.374 1.132-0.614 0.353-0.238 0.685-0.512 0.986-0.814s0.575-0.633 0.814-0.986c0.241-0.356 0.447-0.737 0.614-1.132 0.17-0.402 0.301-0.823 0.388-1.25 0.090-0.439 0.135-0.891 0.135-1.343s-0.046-0.904-0.135-1.343c-0.088-0.428-0.218-0.848-0.388-1.25-0.167-0.395-0.374-0.775-0.614-1.132-0.238-0.353-0.512-0.685-0.814-0.986s-0.633-0.575-0.986-0.814c-0.356-0.241-0.737-0.447-1.132-0.614-0.402-0.17-0.823-0.301-1.25-0.388-0.439-0.090-0.891-0.135-1.343-0.135zM7.061 0.171c3.758 0 6.804 3.046 6.804 6.804s-3.046 6.804-6.804 6.804c-3.758 0-6.804-3.046-6.804-6.804 0-1.729 0.645-3.307 1.707-4.507 1.246-1.409 3.068-2.297 5.097-2.297z"></path>
<path fill="#509437" d="M39.715 0.313c-0.452 0-0.904 0.046-1.343 0.135-0.428 0.088-0.848 0.218-1.25 0.388-0.395 0.167-0.775 0.374-1.132 0.614-0.353 0.238-0.685 0.512-0.986 0.814s-0.575 0.633-0.814 0.986c-0.241 0.356-0.447 0.737-0.614 1.132-0.17 0.402-0.301 0.823-0.388 1.25-0.090 0.439-0.135 0.891-0.135 1.343s0.046 0.904 0.135 1.343c0.087 0.428 0.218 0.848 0.388 1.25 0.167 0.395 0.374 0.775 0.614 1.132 0.238 0.353 0.512 0.685 0.814 0.986s0.633 0.575 0.986 0.814c0.356 0.241 0.737 0.447 1.132 0.614 0.402 0.17 0.823 0.301 1.25 0.388 0.439 0.090 0.891 0.135 1.343 0.135s0.904-0.046 1.343-0.135c0.428-0.088 0.848-0.218 1.25-0.388 0.395-0.167 0.775-0.374 1.132-0.614 0.353-0.238 0.685-0.512 0.986-0.814s0.575-0.633 0.814-0.986c0.241-0.356 0.447-0.737 0.614-1.132 0.17-0.402 0.301-0.823 0.388-1.25 0.090-0.439 0.135-0.891 0.135-1.343s-0.046-0.904-0.135-1.343c-0.087-0.428-0.218-0.848-0.388-1.25-0.167-0.395-0.374-0.775-0.614-1.132-0.238-0.353-0.512-0.685-0.814-0.986s-0.633-0.575-0.986-0.814c-0.356-0.241-0.737-0.447-1.132-0.614-0.402-0.17-0.823-0.301-1.25-0.388-0.439-0.090-0.891-0.135-1.343-0.135zM39.715 0.171c3.758 0 6.804 3.046 6.804 6.804s-3.046 6.804-6.804 6.804c-3.758 0-6.804-3.046-6.804-6.804s3.046-6.804 6.804-6.804z"></path>
</svg>
