<!-- Generated by IcoMoon.io -->
<svg version="1.1" xmlns="http://www.w3.org/2000/svg" width="15" height="32" viewBox="0 0 15 32">
<title>facebook-icon</title>
<path fill="#0b94cc" d="M2.841 32v-16.732h-2.841v-4.971h2.841v-0.844c0-2.618 0.799-5.503 2.752-7.279 1.539-1.352 3.569-2.177 5.792-2.177 0.069 0 0.138 0.001 0.207 0.002h-0.010c0.068-0.001 0.148-0.002 0.228-0.002 1.198 0 2.358 0.163 3.459 0.467l-0.091-0.021-0.266 5.192c-0.63-0.197-1.355-0.31-2.107-0.31-0.024 0-0.048 0-0.072 0h0.004c-2.218 0-3.151 1.73-3.151 3.862v1.109h4.349v4.971h-4.305v16.732z"></path>
</svg>
