<!-- Generated by IcoMoon.io -->
<svg version="1.1" xmlns="http://www.w3.org/2000/svg" width="33" height="32" viewBox="0 0 33 32">
<title>github-icon</title>
<path fill="#f7f7f7" d="M16.294 0c-9.014 0.072-16.294 7.396-16.294 16.421 0 7.181 4.61 13.286 11.031 15.516l0.115 0.035c0.815 0.151 1.112-0.355 1.112-0.79 0-0.39-0.014-1.422-0.023-2.792-4.532 0.991-5.489-2.2-5.489-2.2-0.74-1.896-1.809-2.4-1.809-2.4-1.481-1.017 0.112-0.996 0.112-0.996 1.636 0.116 2.494 1.691 2.494 1.691 1.454 2.506 3.815 1.783 4.744 1.362 0.078-0.864 0.459-1.627 1.034-2.193h0.001c-3.618-0.415-7.423-1.824-7.423-8.107 0-0.028-0.001-0.061-0.001-0.094 0-1.664 0.638-3.179 1.683-4.314l-0.004 0.004c-0.169-0.415-0.727-2.085 0.159-4.341 0 0 1.369-0.441 4.481 1.681 1.222-0.35 2.626-0.551 4.076-0.551 1.454 0 2.86 0.202 4.192 0.58l-0.108-0.026c3.111-2.122 4.478-1.681 4.478-1.681 0.888 2.259 0.33 3.926 0.163 4.34 1.039 1.128 1.676 2.64 1.676 4.301 0 0.036 0 0.072-0.001 0.108v-0.005c0 6.301-3.809 7.688-7.439 8.094 0.584 0.507 1.106 1.507 1.106 3.037 0 2.194-0.020 3.962-0.020 4.5 0 0.439 0.293 0.95 1.12 0.788 6.527-2.271 11.127-8.371 11.127-15.546 0-9.025-7.279-16.349-16.287-16.422h-0.007z"></path>
</svg>
