<!-- Generated by IcoMoon.io -->
<svg version="1.1" xmlns="http://www.w3.org/2000/svg" width="55" height="32" viewBox="0 0 55 32">
<title>graduation-cap-icon</title>
<path fill="#e1e1e1" d="M53.967 9.457l-26.386-9.393c-0.088-0.040-0.191-0.064-0.299-0.064s-0.211 0.024-0.303 0.066l0.005-0.002-26.386 9.393c-0.333 0.155-0.567 0.474-0.597 0.85v0.004c0.006 0.388 0.249 0.718 0.591 0.852l0.006 0.002 10.674 3.843v14.175c0.016 0.456 0.335 0.834 0.762 0.938l0.007 0.001c0.427 0.085 9.564 1.879 15.285 1.879s14.858-1.793 15.285-1.879c0.433-0.106 0.752-0.483 0.768-0.938v-14.091l3.757-1.366v7.173c-1.094 0.407-1.863 1.435-1.879 2.645v3.759c0.005 0.517 0.422 0.935 0.939 0.939h3.758c0.517-0.005 0.935-0.422 0.939-0.939v-3.758c0-0.007 0-0.015 0-0.023 0-1.211-0.777-2.241-1.859-2.618l-0.019-0.006v-7.856l5.038-1.793c0.333-0.155 0.567-0.473 0.598-0.849v-0.004c-0.064-0.414-0.322-0.756-0.676-0.937l-0.007-0.003zM48.929 26.364h-1.879v-2.818c0-0.519 0.421-0.939 0.939-0.939s0.939 0.421 0.939 0.939v2.818zM41.414 28.413c-2.306 0.427-9.564 1.708-14.175 1.708s-11.784-1.281-14.175-1.708v-12.637l13.833 4.951c0.085 0 0.171 0.085 0.342 0.085s0.255 0 0.342-0.085l13.833-4.951zM42.012 13.556v0l-14.773 5.209-14.773-5.294-8.795-3.074 23.568-8.454 23.568 8.454z"></path>
</svg>
