<!-- Generated by IcoMoon.io -->
<svg version="1.1" xmlns="http://www.w3.org/2000/svg" width="23" height="32" viewBox="0 0 23 32">
<title>html-icon</title>
<path fill="#dd4b25" d="M3.53 2.878h1.323v1.449h1.447v-4.327h-1.447v1.43h-1.323v-1.43h-1.446v4.325h1.446z"></path>
<path fill="#dd4b25" d="M8.201 4.327h1.446v-2.891h1.272v-1.436h-3.991v1.436h1.272z"></path>
<path fill="#dd4b25" d="M12.968 2.184l0.996 1.537h0.024l0.994-1.537v2.144h1.441v-4.329h-1.508l-0.927 1.523-0.927-1.523h-1.507v4.325h1.414z"></path>
<path fill="#dd4b25" d="M20.623 2.898h-2.035v-2.898h-1.444v4.325h3.48z"></path>
<path fill="#dd4b25" d="M0 6.225l2.068 23.198 9.284 2.577 9.292-2.576 2.072-23.199h-22.717zM18.228 13.812h-10.887l0.26 2.914h10.37l-0.78 8.736-5.836 1.616-5.83-1.616-0.407-4.57h2.856l0.212 2.37 3.173 0.857 3.172-0.857 0.33-3.69h-9.861l-0.768-8.605h14.251z"></path>
</svg>
