<!-- Generated by IcoMoon.io -->
<svg version="1.1" xmlns="http://www.w3.org/2000/svg" width="24" height="32" viewBox="0 0 24 32">
<title>java-icon</title>
<path fill="#507e9c" d="M17.171 19.556c0.416-0.273 0.896-0.534 1.398-0.756l0.065-0.025s-2.419 0.436-4.825 0.637c-2.945 0.244-6.106 0.294-7.693 0.081-3.756-0.5 2.063-1.881 2.063-1.881-0.014 0-0.031 0-0.048 0-1.82 0-3.537 0.439-5.051 1.217l0.062-0.029c-3.282 1.588 8.125 2.312 14.031 0.756z"></path>
<path fill="#507e9c" d="M11.834 17.55c-1.188-2.669-5.194-5.012 0-9.112 6.481-5.112 3.156-8.437 3.156-8.437 1.345 5.281-4.725 6.881-6.919 10.163-1.494 2.244 0.731 4.65 3.763 7.387z"></path>
<path fill="#507e9c" d="M18.996 6.537c0.006 0-10.95 2.737-5.719 8.764 1.544 1.775-0.406 3.375-0.406 3.375s3.919-2.025 2.119-4.556c-1.681-2.364-2.969-3.537 4.006-7.583z"></path>
<path fill="#507e9c" d="M18.615 23.443c-0.036 0.062-0.077 0.115-0.125 0.162v0c8.019-2.106 5.069-7.431 1.236-6.081-0.211 0.079-0.386 0.216-0.51 0.39l-0.002 0.003c0.192-0.073 0.423-0.137 0.66-0.183l0.028-0.004c1.937-0.406 4.719 2.594-1.288 5.712z"></path>
<path fill="#507e9c" d="M21.565 27.337s0.906 0.744-0.994 1.325c-3.619 1.094-15.050 1.425-18.225 0.044-1.144-0.494 1-1.188 1.675-1.331 0.318-0.080 0.683-0.125 1.059-0.125 0.017 0 0.033 0 0.050 0h-0.003c-1.269-0.894-8.206 1.756-3.525 2.513 12.764 2.075 23.275-0.931 19.964-2.425z"></path>
<path fill="#507e9c" d="M7.591 24.75c-4.919 1.375 2.994 4.212 9.256 1.531-0.684-0.268-1.264-0.557-1.814-0.892l0.052 0.029c-2.794 0.531-4.087 0.569-6.625 0.281-2.094-0.237-0.869-0.95-0.869-0.95z"></path>
<path fill="#507e9c" d="M18.828 30.825c-2.409 0.434-5.181 0.683-8.012 0.683-2.317 0-4.596-0.166-6.824-0.488l0.254 0.030c0-0.006 0.737 0.606 4.525 0.85 5.763 0.369 14.612-0.206 14.819-2.931 0 0-0.4 1.031-4.764 1.855z"></path>
<path fill="#507e9c" d="M16.103 22.062c-1.653 0.377-3.552 0.593-5.501 0.593-1.074 0-2.133-0.066-3.173-0.193l0.125 0.012c-2.094-0.218-0.725-1.231-0.725-1.231-5.425 1.8 3.012 3.837 10.593 1.619-0.512-0.184-0.951-0.456-1.321-0.802l0.002 0.002z"></path>
</svg>
