<!-- Generated by IcoMoon.io -->
<svg version="1.1" xmlns="http://www.w3.org/2000/svg" width="37" height="32" viewBox="0 0 37 32">
<title>javascript-icon</title>
<path fill="#efd81d" d="M28.698 1.261h1.201v3.122h-1.201v-3.122zM28.698 0.060h1.201v0.841h-1.201z"></path>
<path fill="#efd81d" d="M31.812 2.84c-0.002 0.023-0.003 0.049-0.003 0.076 0 0.202 0.058 0.39 0.159 0.549l-0.002-0.004c0.086 0.123 0.227 0.202 0.386 0.202 0.001 0 0.002 0 0.003 0v0c0.145-0.002 0.273-0.078 0.345-0.192l0.001-0.002c0.090-0.162 0.144-0.355 0.144-0.56 0-0.034-0.001-0.068-0.004-0.102v0.004c0.002-0.024 0.003-0.053 0.003-0.082 0-0.202-0.055-0.39-0.151-0.552l0.003 0.005c-0.075-0.119-0.205-0.198-0.354-0.202v0c-0.157 0-0.295 0.079-0.377 0.2l-0.001 0.002c-0.097 0.162-0.155 0.357-0.155 0.566 0 0.032 0.001 0.063 0.004 0.094v-0.004zM30.619 5.58v-4.319h1.113v0.411c0.117-0.141 0.258-0.258 0.418-0.345l0.007-0.004c0.164-0.077 0.355-0.121 0.557-0.121 0.007 0 0.014 0 0.020 0h-0.001c0.015-0.001 0.032-0.001 0.050-0.001 0.377 0 0.711 0.187 0.914 0.473l0.002 0.004c0.215 0.311 0.343 0.695 0.343 1.11 0 0.024 0 0.047-0.001 0.071v-0.003c0.003 0.035 0.004 0.076 0.004 0.118 0 0.404-0.142 0.776-0.378 1.067l0.002-0.003c-0.224 0.251-0.549 0.408-0.91 0.408-0.011 0-0.022 0-0.033 0h0.002c-0.006 0-0.014 0-0.022 0-0.172 0-0.337-0.030-0.491-0.084l0.010 0.003c-0.157-0.057-0.292-0.14-0.407-0.245l0.001 0.001v1.467z"></path>
<path fill="#efd81d" d="M36.083 0.060v1.201h0.661v0.901h-0.661v1.129c-0.001 0.014-0.002 0.031-0.002 0.048 0 0.080 0.016 0.155 0.044 0.225l-0.001-0.004c0.040 0.062 0.11 0.103 0.189 0.103 0.008 0 0.016 0 0.024-0.001h-0.001c0.139-0.008 0.268-0.036 0.389-0.081l-0.009 0.003 0.090 0.769c-0.251 0.054-0.54 0.087-0.836 0.089h-0.002c-0.027 0.002-0.059 0.003-0.091 0.003-0.207 0-0.405-0.042-0.584-0.119l0.010 0.004c-0.142-0.075-0.252-0.194-0.314-0.338l-0.002-0.004c-0.067-0.189-0.105-0.407-0.105-0.635 0-0.039 0.001-0.077 0.003-0.115v0.005-1.082h-0.422v-0.901h0.42v-0.58l1.201-0.621z"></path>
<path fill="#efd81d" d="M24.076 18.668l3.556 0.018-0.297 2.397-0.161 1.29-0.797 6.426-9.408 3.203-8.609-3.203 0.524-4.271h3.559l-0.214 1.76 5.205 1.934 5.693-1.934 0.5-4.033h-10.948l-3.556-0.018 0.297-2.397 0.161-1.29 0.797-6.426 9.408-3.203 8.609 3.203-0.524 4.271h-3.56l0.214-1.761-5.205-1.934-5.694 1.934-0.5 4.033h10.948z"></path>
<path fill="#efd81d" d="M2.162 0.060h1.321v2.342c0.002 0.042 0.003 0.091 0.003 0.14 0 0.35-0.049 0.688-0.14 1.008l0.006-0.026c-0.102 0.274-0.287 0.498-0.523 0.647l-0.005 0.003c-0.268 0.169-0.593 0.269-0.942 0.269-0.026 0-0.053-0.001-0.079-0.002h0.004c-0.034 0.002-0.074 0.003-0.114 0.003-0.325 0-0.636-0.065-0.918-0.184l0.016 0.006c-0.236-0.113-0.426-0.289-0.554-0.505l-0.003-0.006c-0.134-0.24-0.219-0.524-0.233-0.827v-0.004l1.321-0.163c0 0.012-0.001 0.026-0.001 0.041 0 0.127 0.018 0.25 0.052 0.367l-0.002-0.009c0.030 0.086 0.084 0.158 0.154 0.209l0.001 0.001c0.054 0.033 0.12 0.053 0.19 0.053 0.008 0 0.016 0 0.024-0.001h-0.001c0.008 0.001 0.016 0.001 0.025 0.001 0.125 0 0.235-0.066 0.297-0.164l0.001-0.001c0.067-0.139 0.106-0.301 0.106-0.473 0-0.029-0.001-0.058-0.003-0.087v0.004-2.639z"></path>
<path fill="#efd81d" d="M6.214 2.942q-0.235 0.083-0.488 0.148c-0.166 0.031-0.314 0.094-0.442 0.183l0.004-0.002c-0.058 0.053-0.094 0.129-0.094 0.214s0.036 0.16 0.094 0.213v0c0.067 0.054 0.153 0.086 0.246 0.086 0.010 0 0.020 0 0.030-0.001h-0.001c0.001 0 0.003 0 0.004 0 0.128 0 0.249-0.034 0.352-0.094l-0.003 0.002c0.098-0.051 0.177-0.128 0.23-0.221l0.001-0.003c0.044-0.092 0.069-0.2 0.069-0.313 0-0.011 0-0.021-0.001-0.031v0.002-0.181zM5.315 2.342l-1.201-0.121c0.032-0.188 0.096-0.357 0.187-0.507l-0.004 0.006c0.090-0.131 0.206-0.237 0.341-0.314l0.005-0.003c0.129-0.071 0.279-0.124 0.438-0.149l0.008-0.001c0.178-0.034 0.383-0.053 0.592-0.053 0.008 0 0.015 0 0.023 0h-0.001c0.026-0.001 0.057-0.001 0.089-0.001 0.269 0 0.534 0.022 0.791 0.064l-0.028-0.004c0.207 0.035 0.389 0.124 0.537 0.252l-0.001-0.001c0.107 0.1 0.189 0.226 0.236 0.368l0.002 0.006c0.053 0.137 0.084 0.295 0.087 0.46v1.375c0 0.012 0 0.026 0 0.040 0 0.108 0.010 0.213 0.030 0.315l-0.002-0.010c0.032 0.121 0.073 0.227 0.125 0.327l-0.004-0.008h-1.149c-0.032-0.053-0.063-0.114-0.088-0.178l-0.003-0.008c-0.017-0.057-0.031-0.125-0.040-0.195l-0.001-0.006c-0.128 0.131-0.28 0.238-0.447 0.315l-0.009 0.004c-0.202 0.081-0.437 0.128-0.683 0.128-0.014 0-0.027 0-0.041 0h0.002c-0.026 0.002-0.055 0.003-0.086 0.003-0.282 0-0.541-0.096-0.746-0.257l0.003 0.002c-0.173-0.148-0.282-0.366-0.282-0.61 0-0.004 0-0.008 0-0.013v0.001c0-0.010-0.001-0.022-0.001-0.034 0-0.206 0.077-0.394 0.203-0.538l-0.001 0.001c0.203-0.179 0.461-0.299 0.746-0.333l0.006-0.001q0.657-0.131 0.852-0.184c0.169-0.047 0.306-0.094 0.44-0.149l-0.026 0.010c0.001-0.012 0.002-0.025 0.002-0.039 0-0.091-0.031-0.175-0.083-0.242l0.001 0.001c-0.065-0.052-0.148-0.083-0.238-0.083-0.014 0-0.028 0.001-0.042 0.002h0.002c-0.014-0.001-0.029-0.002-0.045-0.002-0.125 0-0.241 0.035-0.34 0.095l0.003-0.002c-0.078 0.069-0.135 0.162-0.159 0.267l-0.001 0.003z"></path>
<path fill="#efd81d" d="M7.625 1.261h1.229l0.602 1.978 0.598-1.978h1.232l-1.324 3.122h-1.055l-1.284-3.122z"></path>
<path fill="#efd81d" d="M13.748 2.942q-0.235 0.083-0.488 0.148c-0.166 0.031-0.314 0.094-0.442 0.183l0.004-0.002c-0.058 0.053-0.094 0.129-0.094 0.214s0.036 0.16 0.094 0.213v0c0.067 0.054 0.153 0.086 0.247 0.086 0.010 0 0.020 0 0.029-0.001h-0.001c0.001 0 0.003 0 0.004 0 0.128 0 0.249-0.034 0.352-0.094l-0.003 0.002c0.098-0.051 0.177-0.128 0.23-0.221l0.001-0.003c0.044-0.092 0.069-0.2 0.069-0.314 0-0.010 0-0.021-0.001-0.031v0.001-0.181zM12.85 2.342l-1.201-0.121c0.032-0.188 0.096-0.357 0.187-0.507l-0.004 0.006c0.090-0.131 0.206-0.237 0.341-0.314l0.005-0.003c0.129-0.071 0.279-0.124 0.438-0.149l0.008-0.001c0.178-0.034 0.383-0.053 0.592-0.053 0.008 0 0.016 0 0.023 0h-0.001c0.026 0 0.057-0.001 0.088-0.001 0.269 0 0.534 0.022 0.791 0.064l-0.028-0.004c0.207 0.035 0.389 0.124 0.537 0.252l-0.001-0.001c0.107 0.1 0.189 0.226 0.236 0.368l0.002 0.006c0.053 0.137 0.085 0.295 0.087 0.46v1.375c0 0.012 0 0.026 0 0.040 0 0.108 0.010 0.213 0.030 0.315l-0.002-0.010c0.032 0.121 0.073 0.227 0.125 0.327l-0.004-0.008h-1.149c-0.032-0.053-0.063-0.114-0.088-0.178l-0.003-0.008c-0.017-0.057-0.031-0.125-0.040-0.195l-0.001-0.007c-0.128 0.131-0.28 0.238-0.447 0.315l-0.009 0.004c-0.203 0.081-0.437 0.128-0.683 0.128-0.014 0-0.027 0-0.041 0h0.002c-0.026 0.002-0.056 0.003-0.086 0.003-0.282 0-0.541-0.096-0.746-0.258l0.003 0.002c-0.173-0.148-0.282-0.366-0.282-0.61 0-0.004 0-0.008 0-0.013v0.001c0-0.009-0.001-0.020-0.001-0.031 0-0.207 0.077-0.396 0.205-0.54l-0.001 0.001c0.203-0.179 0.461-0.299 0.746-0.333l0.006-0.001q0.657-0.131 0.852-0.184c0.169-0.047 0.306-0.094 0.44-0.149l-0.027 0.010c0.001-0.012 0.002-0.025 0.002-0.039 0-0.091-0.031-0.175-0.083-0.242l0.001 0.001c-0.065-0.052-0.148-0.083-0.238-0.083-0.014 0-0.028 0.001-0.042 0.002h0.002c-0.014-0.001-0.029-0.002-0.045-0.002-0.125 0-0.241 0.035-0.34 0.095l0.003-0.002c-0.080 0.069-0.137 0.162-0.161 0.267l-0.001 0.003z"></path>
<path fill="#efd81d" d="M17.471 2.96l1.321-0.078c0.013 0.174 0.070 0.332 0.159 0.466l-0.002-0.004c0.119 0.158 0.306 0.259 0.517 0.259 0.012 0 0.023 0 0.034-0.001h-0.002c0.011 0.001 0.025 0.001 0.038 0.001 0.142 0 0.272-0.051 0.373-0.137l-0.001 0.001c0.088-0.076 0.143-0.187 0.144-0.312v0c-0.001-0.118-0.049-0.225-0.127-0.301v0c-0.186-0.13-0.41-0.219-0.652-0.251l-0.008-0.001c-0.473-0.081-0.892-0.265-1.248-0.53l0.008 0.006c-0.23-0.193-0.375-0.481-0.375-0.802 0-0.009 0-0.017 0-0.026v0.001c0.001-0.233 0.073-0.45 0.195-0.629l-0.003 0.004c0.143-0.206 0.34-0.365 0.57-0.458l0.009-0.003c0.281-0.108 0.606-0.17 0.946-0.17 0.040 0 0.079 0.001 0.118 0.003h-0.006c0.042-0.003 0.090-0.005 0.139-0.005 0.414 0 0.8 0.117 1.127 0.321l-0.009-0.005c0.298 0.235 0.493 0.587 0.515 0.987v0.003l-1.321 0.081c-0.012-0.175-0.078-0.333-0.182-0.459l0.001 0.001c-0.090-0.089-0.214-0.144-0.351-0.144-0.010 0-0.020 0-0.029 0.001h0.001c-0.009-0.001-0.020-0.001-0.031-0.001-0.103 0-0.197 0.038-0.269 0.1v0c-0.062 0.059-0.101 0.143-0.101 0.235 0 0.002 0 0.005 0 0.007v0c0 0.002 0 0.003 0 0.005 0 0.067 0.017 0.129 0.048 0.183l-0.001-0.002q0.045 0.085 0.396 0.161c0.468 0.087 0.885 0.219 1.277 0.395l-0.035-0.014c0.227 0.108 0.412 0.271 0.543 0.473l0.003 0.005c0.108 0.178 0.171 0.393 0.171 0.623 0 0.006 0 0.011 0 0.017v-0.001c0 0.002 0 0.005 0 0.007 0 0.283-0.086 0.545-0.232 0.764l0.003-0.005c-0.157 0.235-0.374 0.418-0.631 0.528l-0.009 0.004c-0.282 0.115-0.609 0.182-0.952 0.182-0.029 0-0.059 0-0.088-0.001h0.004q-1.098 0-1.52-0.419c-0.275-0.275-0.452-0.647-0.478-1.060v-0.005z"></path>
<path fill="#efd81d" d="M24.255 3.182l1.201 0.121c-0.061 0.233-0.167 0.436-0.31 0.607l0.002-0.002c-0.146 0.171-0.329 0.305-0.537 0.392l-0.009 0.004c-0.23 0.090-0.497 0.142-0.775 0.142-0.025 0-0.050 0-0.075-0.001h0.004c-0.021 0-0.045 0.001-0.069 0.001-0.269 0-0.529-0.034-0.778-0.097l0.022 0.005c-0.219-0.059-0.41-0.162-0.569-0.299l0.002 0.002c-0.153-0.133-0.278-0.294-0.368-0.475l-0.004-0.009c-0.086-0.196-0.137-0.425-0.137-0.666 0-0.024 0-0.048 0.002-0.072v0.003c-0.001-0.018-0.001-0.039-0.001-0.060 0-0.268 0.061-0.521 0.17-0.747l-0.004 0.010c0.086-0.164 0.196-0.302 0.327-0.418l0.002-0.001c0.122-0.112 0.263-0.204 0.418-0.272l0.010-0.004c0.243-0.091 0.524-0.144 0.817-0.144 0.027 0 0.055 0 0.082 0.001h-0.004c0.040-0.003 0.086-0.004 0.133-0.004 0.378 0 0.734 0.098 1.042 0.269l-0.011-0.006c0.268 0.179 0.466 0.442 0.559 0.751l0.003 0.010-1.201 0.18c-0.024-0.126-0.088-0.235-0.178-0.314l-0.001-0.001c-0.088-0.067-0.199-0.107-0.32-0.107-0.010 0-0.019 0-0.029 0.001h0.001c-0.003 0-0.007 0-0.011 0-0.177 0-0.334 0.085-0.432 0.217l-0.001 0.001c-0.108 0.164-0.173 0.365-0.173 0.582 0 0.027 0.001 0.055 0.003 0.082v-0.004c-0.002 0.020-0.002 0.043-0.002 0.067 0 0.2 0.064 0.385 0.173 0.535l-0.002-0.003c0.1 0.125 0.253 0.205 0.424 0.205 0.004 0 0.008 0 0.012 0h-0.001c0.006 0 0.012 0 0.019 0 0.133 0 0.255-0.044 0.353-0.119l-0.001 0.001c0.108-0.093 0.187-0.217 0.223-0.358l0.001-0.005z"></path>
<path fill="#efd81d" d="M25.996 1.261h1.118v0.537c0.077-0.186 0.191-0.343 0.334-0.467l0.001-0.001c0.112-0.080 0.251-0.128 0.402-0.128 0.009 0 0.017 0 0.026 0h-0.001c0.214 0.008 0.413 0.065 0.588 0.162l-0.007-0.003-0.373 0.887c-0.098-0.046-0.213-0.077-0.334-0.086h-0.003c-0.004 0-0.010 0-0.015 0-0.146 0-0.275 0.075-0.35 0.189l-0.001 0.002c-0.122 0.244-0.193 0.531-0.193 0.835 0 0.059 0.003 0.118 0.008 0.176l-0.001-0.007v1.027h-1.201v-3.122z"></path>
</svg>
