<!-- Generated by IcoMoon.io -->
<svg version="1.1" xmlns="http://www.w3.org/2000/svg" width="26" height="32" viewBox="0 0 26 32">
<title>logo</title>
<path fill="#bbc705" d="M25.321 12.108c0 6.687-5.421 12.108-12.108 12.108s-12.108-5.421-12.108-12.108c0-6.687 5.421-12.108 12.108-12.108s12.108 5.421 12.108 12.108z"></path>
<path fill="#e1e1e1" d="M14.904 24.097c-0.204-0.309-0.695-7.103-0.726-7.47-0.001-0.026-0.002-0.057-0.002-0.088 0-0.134 0.015-0.264 0.043-0.39l-0.002 0.012c0.028-0.152 0.043-0.307 0.074-0.459 0.147-0.722 0.985-0.823 1.565-0.996l0.029-0.009c0.041-0.013 0.071-0.057 0.023-0.087-0.018-0.010-0.040-0.015-0.062-0.015-0.002 0-0.003 0-0.004 0h0c-0.026-0.001-0.056-0.001-0.086-0.001-0.266 0-0.526 0.028-0.776 0.082l0.024-0.004c-0.071 0.017-0.156 0.031-0.242 0.038l-0.006 0c-0.124 0.004-0.206-0.068-0.142-0.193 0.079-0.153 0.154-0.304 0.227-0.461 0.082-0.175 0.149-0.36 0.239-0.531 0.076-0.144 0.149-0.289 0.218-0.436 0.023-0.048-0.036-0.091-0.070-0.065-0.002-0-0.003-0-0.005-0-0.021 0-0.040 0.013-0.048 0.031l-0 0c-0.164 0.392-0.414 0.757-0.766 1.003-0.109 0.079-0.234 0.146-0.367 0.195l-0.011 0.004c-0.118 0.041-0.276 0.062-0.374-0.031-0.088-0.082-0.121-0.211-0.13-0.327-0.007-0.109-0.011-0.236-0.011-0.365 0-0.146 0.005-0.291 0.015-0.434l-0.001 0.019c0.007-0.235 0.028-0.459 0.063-0.678l-0.004 0.030c0.015-0.053 0.029-0.107 0.041-0.161 0.001-0.003 0.001-0.006 0.001-0.009 0-0.005-0.001-0.010-0.002-0.015l0 0c-0.003-0.024-0.024-0.043-0.049-0.043-0.017 0-0.032 0.009-0.041 0.022l-0 0c-0.007 0.013-0.013 0.027-0.019 0.041-0.033 0.008-0.053 0.104-0.066 0.131-0.050 0.116-0.104 0.215-0.165 0.308l0.005-0.007c-0.010-0.035-0.007-0.066-0.034-0.092-0.009-0.010-0.021-0.015-0.035-0.015-0.026 0-0.047 0.021-0.048 0.047v0c0.004 0.167-0.006 0.333-0.011 0.5 0 0.006 0 0.014 0 0.022 0 0.108-0.015 0.212-0.044 0.31l0.002-0.008c-0.017 0.051-0.058 0.085-0.11 0.054-0.032-0.023-0.054-0.058-0.062-0.098l-0-0.001c-0.018-0.067-0.034-0.135-0.053-0.202-0.106-0.38-0.203-0.769-0.369-1.129-0.025-0.054-0.101-0.011-0.085 0.041-0 0.001-0 0.003-0 0.004 0 0.007 0.001 0.014 0.004 0.020l-0-0c0.080 0.183 0.097 0.382 0.118 0.579 0.022 0.204 0.039 0.408 0.042 0.614 0.002 0.040 0.003 0.088 0.003 0.135 0 0.238-0.027 0.471-0.079 0.693l0.004-0.021c-0.052 0.2-0.132 0.439-0.303 0.57-0.23 0.177-0.403-0.099-0.528-0.267l-0.353-0.476c-0.010-0.012-0.025-0.020-0.042-0.020-0.021 0-0.039 0.012-0.047 0.029l-0 0c-0.018 0.007-0.030 0.023-0.030 0.043 0 0.004 0.001 0.008 0.002 0.012l-0-0c0.024 0.098 0.093 0.183 0.144 0.269 0.041 0.070 0.080 0.141 0.115 0.213 0.027 0.055 0.085 0.129 0.071 0.194-0.029 0.128-0.225 0.089-0.311 0.068-0.107-0.025-0.212-0.056-0.316-0.092-0.056-0.019-0.080 0.062-0.033 0.088 0.004 0.015 0.015 0.027 0.030 0.032l0 0c0.232 0.080 0.432 0.184 0.615 0.312l-0.008-0.005c0.077 0.052 0.14 0.117 0.189 0.193l0.002 0.003c0.048 0.111 0.094 0.246 0.131 0.385l0.005 0.020c0.038 0.358 0.149 0.782 0.167 1.116 0.058 1.088-0.567 6.644-0.647 7.2 0.545 0.089 1.173 0.14 1.813 0.14 0.601 0 1.191-0.045 1.768-0.131l-0.065 0.008z"></path>
<path fill="#509437" d="M11.39 24.083s0.442-3.815 0.576-5.587c0.059-0.722 0.096-0.779 0.077-1.567-0.085-0.767-0.179-1.296-0.279-1.495s-0.859-0.809-2.041-0.585c-1.001 0.272-2.247 1.103-3.236 1.103s-1.78-0.162-2.327-1.014c-0.597-0.842-2.88-0.975-2.88-0.975s0.657 7.132 8.232 9.681c0.591 0.21 1.879 0.439 1.879 0.439z"></path>
<path fill="#509437" d="M14.725 24.131s-0.448-3.863-0.582-5.635c-0.059-0.722-0.096-0.779-0.077-1.567 0.085-0.767 0.179-1.296 0.279-1.495s0.859-0.809 2.041-0.585c1.001 0.272 2.247 1.103 3.236 1.103s1.78-0.162 2.327-1.014c0.597-0.842 3.225-0.946 3.225-0.946s-0.553 6.027-6.739 9.042c-1.775 0.874-3.711 1.097-3.711 1.097z"></path>
</svg>
