<svg xmlns="http://www.w3.org/2000/svg" width="550" height="666" viewBox="0 0 550 666">
  <g id="Group_4331" data-name="Group 4331" transform="translate(-17869 -6528)">
    <g id="Group_4330" data-name="Group 4330" transform="translate(1)">
      <circle id="Ellipse_246" data-name="Ellipse 246" cx="252" cy="252" r="252" transform="translate(17891 6528)" fill="#bbc705"/>
      <g id="Group_4197" data-name="Group 4197" transform="translate(17889.695 6544.894)">
        <path id="Path_21716" data-name="Path 21716" d="M240.389,68.077c-6.885,8.543-9.281,20.766-9.518,32.442-.3,14.644,2.351,29.148,5.443,43.352,5.476,25.15,21.646,66.657,16.795,126.132" fill="none" stroke="#e1e1e1" stroke-linecap="round" stroke-linejoin="round" stroke-width="4"/>
        <path id="Path_21717" data-name="Path 21717" d="M238.918,143.593c-3.13-15.9,1.513-31.145,10.828-44.112,9.858-13.72,23.468-22.752,28.227-39.793" transform="translate(-3)" fill="none" stroke="#e1e1e1" stroke-linecap="round" stroke-linejoin="round" stroke-width="4"/>
        <path id="Path_21718" data-name="Path 21718" d="M230.7,98.437A63.021,63.021,0,0,0,210.03,56.012" fill="none" stroke="#e1e1e1" stroke-linecap="round" stroke-linejoin="round" stroke-width="4"/>
      </g>
      <g id="Group_4329" data-name="Group 4329">
        <path id="Path_21683" data-name="Path 21683" d="M287.967,456.673c-4.243-6.438-14.462-147.831-15.1-155.478a36.963,36.963,0,0,1,.8-9.69c.574-3.172.9-6.4,1.546-9.558,3.063-15.02,20.493-17.138,32.573-20.73l.6-.18c.857-.263,1.483-1.183.488-1.813a2.818,2.818,0,0,0-1.388-.316A76.665,76.665,0,0,0,290.05,260.5a34.892,34.892,0,0,1-5.167.8c-2.585.077-4.285-1.409-2.946-4.013,1.635-3.178,3.2-6.333,4.719-9.587,1.7-3.641,3.1-7.5,4.967-11.05,1.572-2.992,3.093-6.012,4.531-9.077.47-1-.757-1.894-1.45-1.36a1.075,1.075,0,0,0-1.1.655c-3.423,8.148-8.625,15.756-15.943,20.867a33.027,33.027,0,0,1-7.867,4.143c-2.449.851-5.741,1.286-7.79-.643-1.822-1.716-2.527-4.385-2.713-6.8a130.685,130.685,0,0,1,.065-16.223,111.317,111.317,0,0,1,1.229-13.477c.317-1.106.61-2.22.851-3.349a.989.989,0,0,0-.027-.493,1.02,1.02,0,0,0-1.869-.419c-.151.276-.273.562-.4.847-.681.162-1.11,2.161-1.379,2.732a40.546,40.546,0,0,1-3.341,6.253c-.214-.731-.147-1.371-.7-1.923a.994.994,0,0,0-1.726.654c.074,3.469-.12,6.939-.223,10.408a23.094,23.094,0,0,1-.871,6.747c-.36,1.063-1.212,1.772-2.285,1.129a3.248,3.248,0,0,1-1.286-2.049c-.365-1.4-.706-2.8-1.1-4.195-2.215-7.917-4.217-16.006-7.674-23.492-.516-1.117-2.1-.233-1.762.863a1.04,1.04,0,0,0,.079.5c1.66,3.818,2.013,7.946,2.45,12.04.453,4.243.817,8.5.879,12.77a63.806,63.806,0,0,1-1.493,16.809c-1.072,4.169-2.752,9.135-6.3,11.862-4.788,3.682-8.378-2.057-10.98-5.559l-7.355-9.9a1.1,1.1,0,0,0-1.853.19.947.947,0,0,0-.594,1.14c.5,2.031,1.941,3.815,2.99,5.6.855,1.45,1.662,2.928,2.4,4.442.553,1.136,1.771,2.687,1.468,4.037-.6,2.665-4.684,1.844-6.482,1.418-2.22-.526-4.41-1.175-6.567-1.918-1.156-.4-1.668,1.3-.687,1.837a.956.956,0,0,0,.629.664,51.782,51.782,0,0,1,12.638,6.372,13.426,13.426,0,0,1,3.958,4.069,60.978,60.978,0,0,1,2.811,8.434c.782,7.455,3.111,16.268,3.478,23.226,1.2,22.638-11.8,138.273-13.46,149.847A246.293,246.293,0,0,0,287.967,456.673Z" transform="translate(17890.227 6572.85)" fill="#e1e1e1"/>
        <g id="Group_4222" data-name="Group 4222" transform="translate(17889.695 6572.256)">
          <path id="Path_21852" data-name="Path 21852" d="M281.409,255.91a65.66,65.66,0,0,1,9.2-10.476c12.694-11.687,29-18.63,45.371-24.091s33.221-9.692,48.85-17a150.53,150.53,0,0,0,45.711-33.688c3.849-4.111,7.587-8.579,9.244-13.962" fill="none" stroke="#e1e1e1" stroke-linecap="round" stroke-linejoin="round" stroke-width="4"/>
          <path id="Path_21853" data-name="Path 21853" d="M277.877,261.551c7.549-10.77,22-14.394,32.8-15.128s21.624.446,32.43,1.079a320.422,320.422,0,0,0,47.169-.723c14.184-1.267,28.754-3.651,40.765-11.3" fill="none" stroke="#e1e1e1" stroke-linecap="round" stroke-linejoin="round" stroke-width="4"/>
          <path id="Path_21854" data-name="Path 21854" d="M325.164,225.22c4.436-1.173,11.625-7.6,14.469-11.2a228.549,228.549,0,0,0,44.651-96.84" fill="none" stroke="#e1e1e1" stroke-linecap="round" stroke-linejoin="round" stroke-width="4"/>
          <path id="Path_21855" data-name="Path 21855" d="M356.66,189.224c3.416-5.96,6.578-10.85,9.746-12.9s6.734-3.4,10.1-5.1a53.159,53.159,0,0,0,23.147-23" fill="none" stroke="#e1e1e1" stroke-linecap="round" stroke-linejoin="round" stroke-width="4"/>
          <path id="Path_21856" data-name="Path 21856" d="M362.418,114.5c-1.03,4.4.2,9.032,2.048,13.157s4.308,7.967,5.939,12.182,2.482,16.205.787,20.394" fill="none" stroke="#e1e1e1" stroke-linecap="round" stroke-linejoin="round" stroke-width="4"/>
          <path id="Path_21857" data-name="Path 21857" d="M255.965,273.92c-6.688-28.142-1.213-58.4,12.056-84.105s33.915-47.091,57.264-64.165c17.742-12.974,38.24-24.919,46.764-45.178" fill="none" stroke="#e1e1e1" stroke-linecap="round" stroke-linejoin="round" stroke-width="4"/>
          <path id="Path_21858" data-name="Path 21858" d="M253.9,235.477c1.535-10.01,6.68-28.978,13.067-36.864,6.558-8.1,15.181-14.089,24.073-19.357,9.448-5.6,19.618-10.351,28.379-17.04,7.676-5.861,13.078-12.83,15.911-22.05" fill="none" stroke="#e1e1e1" stroke-linecap="round" stroke-linejoin="round" stroke-width="4"/>
          <path id="Path_21859" data-name="Path 21859" d="M282.328,167.185c2.708-10.759,5.277-18.272,10.923-27.822,5.317-8.994,11.951-17.492,14.566-27.607a37.87,37.87,0,0,0-.1-19.241,25.645,25.645,0,0,0-3.22-7.481,19.49,19.49,0,0,0-8.118-6.945" fill="none" stroke="#e1e1e1" stroke-linecap="round" stroke-linejoin="round" stroke-width="4"/>
          <path id="Path_21860" data-name="Path 21860" d="M335.331,118.489c8.046-12.915,11.543-30.982,7.755-45.719" fill="none" stroke="#e1e1e1" stroke-linecap="round" stroke-linejoin="round" stroke-width="4"/>
          <path id="Path_21861" data-name="Path 21861" d="M314.882,184.384a60.161,60.161,0,0,1-6.464,23.115c-3.215,6.266-7.5,11.91-11.165,17.926s-6.756,12.613-7.185,19.643" fill="none" stroke="#e1e1e1" stroke-linecap="round" stroke-linejoin="round" stroke-width="4"/>
          <path id="Path_21862" data-name="Path 21862" d="M271.2,282.3c8.226-17.257,28.852-23.1,46.237-19.8,11.44,2.174,21.751,7.872,32.326,12.472,9.741,4.236,19.774,8.008,30.251,9.755,14.211,2.37,28.712.339,41.261-6.909,4.145-2.393,9.726-5.88,10.959-10.84" fill="none" stroke="#e1e1e1" stroke-linecap="round" stroke-linejoin="round" stroke-width="4"/>
          <path id="Path_21866" data-name="Path 21866" d="M392.257,200.552c11.176-4.4,21.931-8.991,34.131-9.25,16.135-.341,33.262,5.591,44.436,17.5" fill="none" stroke="#e1e1e1" stroke-linecap="round" stroke-linejoin="round" stroke-width="3.55"/>
        </g>
        <g id="Group_4328" data-name="Group 4328" transform="translate(17889.695 6572.256)">
          <path id="Path_22470" data-name="Path 22470" d="M228.43,291.442c2.29-17.1-6.341-34.321-19.035-46.008s-29-18.63-45.371-24.091-33.221-9.692-48.851-17a150.538,150.538,0,0,1-45.71-33.688c-3.849-4.111-7.587-8.579-9.245-13.962" fill="none" stroke="#e1e1e1" stroke-linecap="round" stroke-linejoin="round" stroke-width="4"/>
          <path id="Path_22471" data-name="Path 22471" d="M222.123,261.551c-7.549-10.77-22-14.394-32.8-15.128s-21.624.446-32.43,1.079a320.422,320.422,0,0,1-47.169-.723c-14.184-1.267-28.754-3.651-40.765-11.3" fill="none" stroke="#e1e1e1" stroke-linecap="round" stroke-linejoin="round" stroke-width="4"/>
          <path id="Path_22472" data-name="Path 22472" d="M174.836,225.22c-4.436-1.173-11.625-7.6-14.47-11.2a228.559,228.559,0,0,1-44.65-96.84" fill="none" stroke="#e1e1e1" stroke-linecap="round" stroke-linejoin="round" stroke-width="4"/>
          <path id="Path_22473" data-name="Path 22473" d="M143.34,189.224c-3.416-5.96-6.578-10.85-9.747-12.9s-6.733-3.4-10.1-5.1a53.159,53.159,0,0,1-23.147-23" fill="none" stroke="#e1e1e1" stroke-linecap="round" stroke-linejoin="round" stroke-width="4"/>
          <path id="Path_22474" data-name="Path 22474" d="M137.582,114.5c1.03,4.4-.2,9.032-2.048,13.157s-4.308,7.967-5.939,12.182-2.482,16.205-.787,20.394" fill="none" stroke="#e1e1e1" stroke-linecap="round" stroke-linejoin="round" stroke-width="4"/>
          <path id="Path_22475" data-name="Path 22475" d="M244.035,273.92c6.688-28.142,1.213-58.4-12.056-84.105s-33.916-47.091-57.265-64.165c-17.741-12.974-38.24-24.919-46.763-45.178" fill="none" stroke="#e1e1e1" stroke-linecap="round" stroke-linejoin="round" stroke-width="4"/>
          <path id="Path_22476" data-name="Path 22476" d="M246.1,235.477c-1.535-10.01-6.68-28.978-13.067-36.864-6.558-8.1-15.181-14.089-24.073-19.357-9.448-5.6-19.618-10.351-28.379-17.04-7.676-5.861-13.078-12.83-15.911-22.05" fill="none" stroke="#e1e1e1" stroke-linecap="round" stroke-linejoin="round" stroke-width="4"/>
          <path id="Path_22477" data-name="Path 22477" d="M217.672,167.185c-2.708-10.759-5.277-18.272-10.923-27.822-5.317-8.994-11.951-17.492-14.566-27.607a37.87,37.87,0,0,1,.1-19.241,25.645,25.645,0,0,1,3.22-7.481,19.484,19.484,0,0,1,8.118-6.945" fill="none" stroke="#e1e1e1" stroke-linecap="round" stroke-linejoin="round" stroke-width="4"/>
          <path id="Path_22478" data-name="Path 22478" d="M164.669,118.489c-8.046-12.915-11.543-30.982-7.755-45.719" fill="none" stroke="#e1e1e1" stroke-linecap="round" stroke-linejoin="round" stroke-width="4"/>
          <path id="Path_22479" data-name="Path 22479" d="M185.118,184.384a60.178,60.178,0,0,0,6.463,23.115c3.215,6.266,7.5,11.91,11.165,17.926s6.757,12.613,7.185,19.643" transform="translate(3 3.438)" fill="none" stroke="#e1e1e1" stroke-linecap="round" stroke-linejoin="round" stroke-width="4"/>
          <path id="Path_22480" data-name="Path 22480" d="M228.8,282.3c-8.226-17.257-28.852-23.1-46.237-19.8-11.44,2.174-21.751,7.872-32.326,12.472-9.741,4.236-19.774,8.008-30.252,9.755-14.21,2.37-28.711.339-41.26-6.909-4.145-2.393-9.726-5.88-10.959-10.84" fill="none" stroke="#e1e1e1" stroke-linecap="round" stroke-linejoin="round" stroke-width="4"/>
          <path id="Path_22484" data-name="Path 22484" d="M107.743,200.552c-11.176-4.4-21.931-8.991-34.131-9.25-16.135-.341-33.262,5.591-44.436,17.5" fill="none" stroke="#e1e1e1" stroke-linecap="round" stroke-linejoin="round" stroke-width="3.55"/>
        </g>
      </g>
      <path id="Path_22485" data-name="Path 22485" d="M18105.063,7029.22s9.2-79.4,11.984-116.276c1.227-15.021,1.992-16.209,1.609-32.609-1.764-15.96-3.732-26.968-5.807-31.112s-17.873-16.838-42.482-12.175c-20.84,5.657-46.758,22.958-67.352,22.958s-37.041-3.369-48.439-21.112c-12.42-17.532-59.941-20.3-59.941-20.3s13.668,148.428,171.322,201.489C18078.262,7024.458,18105.063,7029.22,18105.063,7029.22Z" fill="#509437"/>
      <path id="Path_22486" data-name="Path 22486" d="M17908.457,7030.225s-9.332-80.4-12.113-117.281c-1.227-15.021-1.992-16.209-1.609-32.609,1.764-15.96,3.732-26.968,5.807-31.112s17.873-16.838,42.482-12.175c20.84,5.657,46.758,22.958,67.352,22.958s37.041-3.369,48.439-21.112c12.42-17.532,67.119-19.681,67.119-19.681s-11.51,125.432-140.25,188.184C17948.748,7025.583,17908.457,7030.225,17908.457,7030.225Z" transform="translate(266)" fill="#509437"/>
    </g>
    <text id="Developer" transform="translate(17869 7169)" fill="#509437" font-size="119" font-family="Lato-Bold, Lato" font-weight="700"><tspan x="0" y="0">Developer</tspan></text>
  </g>
</svg>
