<!-- Generated by IcoMoon.io -->
<svg version="1.1" xmlns="http://www.w3.org/2000/svg" width="31" height="32" viewBox="0 0 31 32">
<title>mail-icon</title>
<path fill="#ef699d" d="M22.758 30.343c-2.278 1.053-4.943 1.667-7.752 1.667-0.233 0-0.465-0.004-0.695-0.013l0.033 0.001c-7.632 0-14.345-5.471-14.345-14.483 0-9.379 6.805-17.517 17.196-17.517 8.091 0 13.885 5.564 13.885 13.287 0 6.711-3.771 10.943-8.736 10.943-2.163 0-3.723-1.104-3.953-3.54h-0.091c-1.425 2.345-3.494 3.54-5.931 3.54-2.988 0-5.149-2.207-5.149-5.977 0-5.61 4.137-10.713 10.759-10.713 2.023 0 4.321 0.505 5.472 1.149l-1.38 8.506c-0.46 2.712-0.138 3.954 1.149 4 1.978 0.047 4.461-2.482 4.461-7.77 0-5.977-3.863-10.621-10.988-10.621-7.035 0-13.196 5.517-13.196 14.299 0 7.678 4.92 12.046 11.771 12.046 0.058 0.001 0.126 0.001 0.195 0.001 2.353 0 4.579-0.543 6.56-1.511l-0.088 0.039zM18.666 11.356c-0.428-0.117-0.919-0.184-1.426-0.184v0c-3.035 0-5.425 2.988-5.425 6.529 0 1.747 0.781 2.85 2.299 2.85 1.701 0 3.494-2.163 3.908-4.825z"></path>
</svg>
