<!-- Generated by IcoMoon.io -->
<svg version="1.1" xmlns="http://www.w3.org/2000/svg" width="59" height="32" viewBox="0 0 59 32">
<title>mongodb-icon</title>
<path fill="#8f755a" d="M53.837 20.328c-0.058 0.015-0.13 0.145-0.13 0.232-0.014 0.508-0.029 1.841-0.029 2.755 0.008 0.036 0.036 0.065 0.072 0.072h0.001c0.188 0.015 0.638 0.029 1.030 0.029 0.040 0.002 0.087 0.003 0.134 0.003 0.321 0 0.629-0.054 0.916-0.154l-0.020 0.006c0.404-0.24 0.67-0.674 0.67-1.171 0-0.032-0.001-0.064-0.003-0.095v0.004c0-1.218-0.855-1.697-2.131-1.697-0.066-0.013-0.142-0.020-0.22-0.020-0.102 0-0.201 0.013-0.296 0.036l0.008-0.002zM57.085 25.968c0-1.247-0.913-1.943-2.581-1.943-0.071-0.003-0.154-0.005-0.238-0.005-0.171 0-0.341 0.007-0.508 0.020l0.022-0.001c-0.043 0.015-0.087 0.043-0.087 0.072 0 0.899-0.014 2.32 0.029 2.871 0.034 0.286 0.192 0.53 0.417 0.679l0.004 0.002c0.272 0.096 0.585 0.151 0.912 0.151 0.067 0 0.133-0.002 0.199-0.007h-0.009c0.042 0.004 0.091 0.006 0.14 0.006 0.943 0 1.708-0.764 1.708-1.707 0-0.049-0.002-0.098-0.006-0.146v0.006zM51.256 19.632c0.13 0 0.508 0.043 1.479 0.043 0.913 0 1.653-0.029 2.552-0.029 1.102 0 2.61 0.392 2.61 2.030-0.040 0.814-0.565 1.496-1.291 1.765l-0.014 0.004c-0.043 0.015-0.043 0.043 0 0.043 1.059 0.259 1.986 0.913 1.986 2.16 0 1.204-0.754 1.986-1.856 2.465-0.636 0.25-1.373 0.395-2.143 0.395-0.072 0-0.144-0.001-0.216-0.004h0.010c-0.638 0-2.364-0.072-3.335-0.043-0.103-0.043 0.087-0.493 0.174-0.566 0.23-0.007 0.448-0.044 0.655-0.108l-0.017 0.005c0.333-0.087 0.377-0.188 0.435-0.71 0.029-0.435 0.029-2.001 0.029-3.117 0-1.522 0.014-2.566 0-3.060-0.014-0.392-0.145-0.522-0.435-0.595-0.217-0.043-0.566-0.087-0.855-0.13-0.058-0.072 0.159-0.508 0.232-0.551zM43.992 27.476c0.36 0.213 0.793 0.339 1.255 0.339 0.058 0 0.116-0.002 0.174-0.006h-0.008c0.042 0.002 0.091 0.004 0.141 0.004 0.724 0 1.384-0.277 1.879-0.73l-0.002 0.002c0.667-0.609 1.131-1.537 1.131-3.031 0.005-0.068 0.007-0.148 0.007-0.228 0-1.268-0.655-2.382-1.646-3.023l-0.014-0.009c-0.619-0.35-1.36-0.556-2.148-0.556-0.076 0-0.151 0.002-0.226 0.006h0.011c-0.034-0.002-0.073-0.003-0.113-0.003-0.213 0-0.419 0.033-0.611 0.094l0.014-0.004c-0.063 0.051-0.109 0.12-0.13 0.2l-0.001 0.003c-0.029 0.246-0.029 2.189-0.029 3.335 0 1.175 0 2.813 0.029 3.001 0.011 0.243 0.12 0.458 0.289 0.608l0.001 0.001zM41.122 19.632c0.246 0 1.16 0.043 1.595 0.043 0.797 0 1.363-0.043 2.856-0.043 0.066-0.003 0.143-0.005 0.221-0.005 1.082 0 2.077 0.373 2.862 0.998l-0.009-0.007c0.865 0.758 1.409 1.865 1.409 3.099 0 0.047-0.001 0.094-0.002 0.141v-0.007c0.003 0.063 0.005 0.137 0.005 0.212 0 1.399-0.683 2.639-1.733 3.404l-0.012 0.008c-0.926 0.641-2.073 1.024-3.31 1.024-0.111 0-0.221-0.003-0.33-0.009l0.015 0.001c-0.855 0-2.334-0.029-3.552-0.043h-0.014c-0.058-0.116 0.103-0.551 0.203-0.566 0.21-0.007 0.409-0.049 0.592-0.12l-0.012 0.004c0.259-0.104 0.319-0.246 0.348-0.71 0.043-0.87 0.029-1.914 0.029-3.105 0-0.841 0.014-2.494-0.014-3.031-0.043-0.435-0.232-0.551-0.609-0.621-0.216-0.050-0.487-0.096-0.763-0.127l-0.034-0.003c-0.029-0.072 0.203-0.466 0.259-0.537z"></path>
<path fill="#8f755a" d="M25.869 27.969c-0.306-0.030-0.586-0.107-0.845-0.224l0.017 0.007c-0.055-0.052-0.093-0.122-0.103-0.201v-0.002c-0.029-0.435-0.029-1.697-0.029-2.552 0.003-0.053 0.005-0.116 0.005-0.179 0-0.559-0.153-1.083-0.419-1.532l0.008 0.014c-0.311-0.458-0.829-0.755-1.417-0.755-0.017 0-0.033 0-0.050 0.001h0.002c-0.751 0.093-1.411 0.424-1.915 0.914l0.001-0.001c-0.015 0.015-0.116 0.104-0.104-0.043 0-0.145 0.029-0.421 0.043-0.609 0.002-0.012 0.002-0.025 0.002-0.039 0-0.086-0.034-0.163-0.089-0.22v0c-0.566 0.228-1.226 0.405-1.911 0.502l-0.046 0.005c-0.304 0.058-0.377 0.348-0.058 0.45h0.015c0.281 0.081 0.527 0.195 0.75 0.34l-0.011-0.006c0.075 0.070 0.122 0.17 0.122 0.28 0 0.024-0.002 0.047-0.006 0.070v-0.002c0.015 0.942 0.015 2.393-0.029 3.19-0.015 0.319-0.104 0.435-0.334 0.479l0.029-0.015c-0.147 0.040-0.328 0.076-0.514 0.101l-0.023 0.002c-0.034 0.084-0.054 0.181-0.054 0.283s0.020 0.199 0.056 0.288l-0.002-0.005c0.145 0 0.87-0.043 1.479-0.043 0.828 0 1.261 0.043 1.479 0.043 0.054-0.104 0.086-0.227 0.086-0.357 0-0.074-0.010-0.146-0.030-0.214l0.001 0.006c-0.21-0.009-0.409-0.040-0.599-0.091l0.019 0.004c-0.232-0.043-0.29-0.159-0.304-0.435-0.029-0.667-0.029-2.073-0.029-3.045-0.002-0.019-0.003-0.042-0.003-0.065 0-0.154 0.056-0.294 0.149-0.402l-0.001 0.001c0.318-0.261 0.726-0.423 1.172-0.435h0.003c0.013 0 0.027-0.001 0.042-0.001 0.314 0 0.603 0.11 0.83 0.292l-0.003-0.002c0.22 0.203 0.368 0.48 0.406 0.791l0.001 0.006c0.058 0.537 0.043 1.609 0.043 2.552 0 0.508-0.043 0.621-0.232 0.696-0.17 0.060-0.368 0.101-0.573 0.115h-0.007c-0.034 0.084-0.054 0.181-0.054 0.283s0.020 0.199 0.056 0.288l-0.002-0.005c0.362 0 0.797-0.043 1.421-0.043 0.783 0 1.29 0.043 1.493 0.043 0.056-0.093 0.088-0.206 0.088-0.326 0-0.070-0.011-0.137-0.032-0.201l0.001 0.005zM29.363 23.157c-0.667 0-1.087 0.522-1.087 1.319 0 0.828 0.362 1.769 1.406 1.769 0.002 0 0.005 0 0.007 0 0.248 0 0.475-0.093 0.646-0.247l-0.001 0.001c0.253-0.288 0.408-0.669 0.408-1.086 0-0.026-0.001-0.052-0.002-0.078v0.004c0-1.059-0.522-1.682-1.377-1.682zM29.276 28.725c-0.009 0-0.020-0.001-0.031-0.001-0.187 0-0.362 0.054-0.509 0.148l0.004-0.002c-0.537 0.334-0.768 0.667-0.768 1.059 0 0 0 0.001 0 0.001 0 0.367 0.169 0.695 0.433 0.91l0.002 0.002c0.372 0.293 0.846 0.47 1.363 0.47 0.051 0 0.102-0.002 0.152-0.005h-0.007c1.29 0 1.856-0.696 1.856-1.377 0-0.009 0-0.020 0-0.031 0-0.449-0.304-0.827-0.718-0.938l-0.007-0.002c-0.453-0.151-0.974-0.238-1.516-0.238-0.089 0-0.177 0.002-0.265 0.007l0.012-0.001zM29.363 32.002c-0.051 0.003-0.111 0.005-0.171 0.005-0.614 0-1.18-0.204-1.634-0.547l0.007 0.005c-0.386-0.29-0.64-0.736-0.667-1.243v-0.004c0.007-0.239 0.099-0.456 0.247-0.622l-0.001 0.001c0.345-0.339 0.724-0.645 1.132-0.911l0.028-0.017q0.043-0.022 0.043-0.043c0-0.029-0.029-0.043-0.043-0.058-0.392-0.117-0.697-0.412-0.825-0.789l-0.003-0.009v-0.050c-0.010-0.022-0.016-0.048-0.016-0.075 0-0.066 0.035-0.124 0.088-0.156h0.001l0.348-0.232c0.225-0.128 0.414-0.253 0.595-0.388l-0.015 0.011c0.018-0.015 0.030-0.037 0.030-0.062 0-0.004 0-0.007-0.001-0.011v0c0-0.029-0.029-0.043-0.043-0.058-0.773-0.226-1.327-0.928-1.327-1.76 0-0.059 0.003-0.118 0.008-0.176l-0.001 0.007c0-0.005 0-0.011 0-0.017 0-0.648 0.318-1.222 0.806-1.574l0.006-0.004c0.511-0.348 1.13-0.573 1.799-0.62l0.012-0.001h0.043c0.507 0.021 0.982 0.131 1.419 0.314l-0.027-0.010c0.231 0.083 0.497 0.131 0.774 0.131 0.019 0 0.038 0 0.056-0.001h-0.003c0.033 0.004 0.071 0.006 0.11 0.006 0.306 0 0.581-0.13 0.774-0.339l0.001-0.001c0.028 0.060 0.045 0.131 0.045 0.206 0 0.014-0.001 0.028-0.002 0.042v-0.002c0 0.010 0.001 0.023 0.001 0.035 0 0.202-0.060 0.391-0.162 0.549l0.002-0.004c-0.13 0.151-0.322 0.246-0.537 0.246-0.005 0-0.010 0-0.015 0h-0.055c-0.232-0.029-0.334-0.043-0.334-0.043l-0.043 0.029c-0.015 0.029 0 0.043 0.015 0.087l0.015 0.029c0.033 0.154 0.059 0.337 0.072 0.525l0.001 0.012c0.004 0.047 0.006 0.101 0.006 0.157 0 0.686-0.337 1.294-0.855 1.666l-0.006 0.004c-0.409 0.314-0.916 0.52-1.469 0.565l-0.010 0.001c-0.062 0.001-0.123 0.006-0.181 0.015l0.008-0.001c-0.058 0-0.145 0.015-0.159 0.015h-0.015c-0.104 0.029-0.348 0.145-0.348 0.362 0 0.188 0.116 0.421 0.652 0.45 0.116 0.015 0.232 0.015 0.348 0.029 0.732 0.022 1.429 0.111 2.104 0.26l-0.075-0.014c0.553 0.198 0.942 0.717 0.942 1.328 0 0.007 0 0.014 0 0.021v-0.001c0 0.928-0.667 1.798-1.784 2.349-0.502 0.233-1.090 0.371-1.709 0.377h-0.002zM36.555 23.215c-0.015-0.001-0.033-0.001-0.051-0.001-0.235 0-0.453 0.071-0.635 0.192l0.004-0.003c-0.493 0.304-0.739 0.913-0.739 1.784 0 1.653 0.828 2.813 2.018 2.813 0.010 0 0.022 0 0.034 0 0.319 0 0.612-0.115 0.838-0.306l-0.002 0.002c0.362-0.304 0.551-0.913 0.551-1.755 0-1.624-0.828-2.726-2.018-2.726zM36.772 28.609c-2.146 0-2.914-1.58-2.914-3.045-0.001-0.028-0.002-0.061-0.002-0.095 0-0.959 0.492-1.802 1.238-2.291l0.010-0.006c0.549-0.342 1.213-0.55 1.924-0.565h0.004c0.027-0.001 0.058-0.002 0.090-0.002 1.491 0 2.699 1.208 2.699 2.699 0 0.056-0.002 0.111-0.005 0.166v-0.008c0.003 0.049 0.005 0.106 0.005 0.164 0 1.019-0.522 1.917-1.313 2.439l-0.011 0.007c-0.49 0.315-1.082 0.512-1.719 0.536h-0.007zM14.312 23.214c-0.015-0.001-0.033-0.001-0.051-0.001-0.235 0-0.453 0.071-0.635 0.192l0.004-0.003c-0.493 0.304-0.739 0.913-0.739 1.784 0 1.653 0.828 2.813 2.018 2.813 0.010 0 0.022 0 0.034 0 0.319 0 0.612-0.115 0.838-0.306l-0.002 0.002c0.362-0.304 0.551-0.913 0.551-1.755 0-1.624-0.812-2.726-2.018-2.726zM14.546 28.607c-2.146 0-2.914-1.58-2.914-3.045-0.001-0.028-0.002-0.062-0.002-0.095 0-0.959 0.492-1.802 1.238-2.291l0.010-0.006c0.549-0.342 1.213-0.55 1.924-0.565h0.004c0.027-0.001 0.058-0.002 0.090-0.002 1.491 0 2.699 1.208 2.699 2.699 0 0.056-0.002 0.111-0.005 0.166v-0.008c0.003 0.049 0.005 0.106 0.005 0.164 0 1.019-0.522 1.917-1.313 2.439l-0.011 0.007c-0.49 0.315-1.082 0.512-1.719 0.537h-0.007zM0.134 28.477c-0.029-0.070-0.046-0.15-0.046-0.235 0-0.019 0.001-0.038 0.003-0.057v0.002c0-0.003 0-0.006 0-0.010 0-0.065 0.016-0.127 0.045-0.181l-0.001 0.002c0.214-0.031 0.4-0.071 0.582-0.123l-0.031 0.008c0.246-0.058 0.348-0.203 0.362-0.522 0.043-0.754 0.043-2.189 0.029-3.19v-0.029c0.003-0.017 0.004-0.036 0.004-0.055 0-0.12-0.058-0.226-0.148-0.292l-0.001-0.001c-0.217-0.142-0.468-0.257-0.736-0.329l-0.018-0.004c-0.116-0.043-0.188-0.104-0.174-0.174 0-0.072 0.072-0.159 0.246-0.188 0.726-0.109 1.376-0.281 1.995-0.515l-0.067 0.022c0.037 0.050 0.059 0.113 0.059 0.18 0 0.008 0 0.016-0.001 0.024v-0.001l-0.014 0.145c-0.014 0.145-0.029 0.304-0.029 0.466 0.005 0.049 0.046 0.087 0.096 0.087 0.003 0 0.005 0 0.008 0v0c0.029 0 0.043-0.015 0.072-0.029 0.519-0.452 1.174-0.759 1.896-0.853l0.018-0.002c0.004 0 0.008 0 0.012 0 0.632 0 1.18 0.362 1.448 0.89l0.004 0.009c0.029 0.043 0.043 0.043 0.087 0.043 0 0 0.001 0 0.001 0 0.031 0 0.058-0.017 0.071-0.043v0c0.539-0.473 1.217-0.799 1.965-0.911l0.021-0.003c1.175 0 1.87 0.87 1.87 2.349 0 0.421 0 0.957-0.014 1.449 0 0.435-0.014 0.841-0.014 1.131 0.023 0.136 0.111 0.247 0.229 0.303l0.002 0.001c0.212 0.088 0.458 0.15 0.715 0.173l0.010 0.001h0.014c0.002 0.026 0.004 0.057 0.004 0.088 0 0.141-0.028 0.275-0.079 0.398l0.003-0.007c-0.009 0-0.021 0-0.032 0-0.101 0-0.201-0.005-0.299-0.016l0.012 0.001c-0.246-0.015-0.58-0.029-0.957-0.029-0.783 0-1.19 0.015-1.58 0.043-0.017-0.072-0.027-0.154-0.027-0.239s0.010-0.167 0.029-0.247l-0.001 0.007c0.188-0.033 0.349-0.074 0.506-0.123l-0.027 0.008c0.246-0.072 0.319-0.188 0.334-0.522 0-0.246 0.043-2.277-0.029-2.769-0.072-0.624-0.597-1.103-1.234-1.103-0.020 0-0.040 0-0.059 0.001h0.003c-0.493 0.028-0.938 0.209-1.295 0.497l0.004-0.003c-0.027 0.034-0.044 0.078-0.044 0.125 0 0.002 0 0.004 0 0.005v0 0.015c0.030 0.239 0.048 0.515 0.048 0.795 0 0.082-0.002 0.165-0.004 0.246v-0.012 0.828c0 0.566-0.014 1.102 0 1.493 0 0.275 0.159 0.334 0.304 0.392 0.072 0.015 0.13 0.029 0.188 0.043 0.116 0.029 0.232 0.043 0.406 0.087 0.013 0.045 0.020 0.097 0.020 0.151 0 0.071-0.013 0.138-0.036 0.201l0.001-0.004c-0.014 0.053-0.029 0.096-0.046 0.139l0.003-0.008c-0.435-0.015-0.87-0.029-1.508-0.029-0.188 0-0.522 0.015-0.797 0.015-0.232 0-0.435 0.015-0.566 0.015-0.028-0.067-0.044-0.145-0.044-0.226 0-0.007 0-0.014 0-0.021v0.001c0-0.003 0-0.008 0-0.012 0-0.079 0.016-0.155 0.045-0.224l-0.001 0.004c0.051-0.016 0.111-0.026 0.172-0.029h0.002c0.145-0.029 0.275-0.043 0.406-0.072 0.217-0.058 0.29-0.174 0.304-0.45 0.027-0.4 0.042-0.866 0.042-1.337 0-0.545-0.021-1.085-0.061-1.619l0.004 0.071c-0.047-0.619-0.56-1.103-1.187-1.103-0.016 0-0.032 0-0.048 0.001h0.002c-0.492 0.032-0.937 0.212-1.295 0.497l0.005-0.004c-0.072 0.074-0.116 0.176-0.116 0.287 0 0.001 0 0.002 0 0.003v0 0.739c0 0.913 0 2.044 0.014 2.535 0 0.001 0 0.003 0 0.005 0 0.201 0.152 0.366 0.347 0.387h0.002c0.086 0.026 0.186 0.042 0.289 0.043h0.001l0.232 0.043c0.009 0.047 0.014 0.102 0.014 0.158 0 0.115-0.021 0.225-0.059 0.327l0.002-0.006c-0.13 0-0.275-0.015-0.45-0.015-0.259-0.015-0.609-0.029-0.986-0.029-0.435 0-0.754 0.015-1.015 0.029z"></path>
<path fill="#fff" d="M29.677 19.415l-0.522-0.174s0.058-2.639-0.884-2.827c-0.621-0.724 0.104-31.014 2.364-0.104-0.431 0.219-0.757 0.593-0.91 1.046l-0.004 0.013c-0.048 0.371-0.076 0.799-0.076 1.235 0 0.285 0.012 0.567 0.035 0.846l-0.002-0.037z"></path>
<path fill="#a6a385" d="M29.677 19.415l-0.522-0.174s0.058-2.639-0.884-2.827c-0.621-0.724 0.104-31.014 2.364-0.104-0.431 0.219-0.757 0.593-0.91 1.046l-0.004 0.013c-0.048 0.371-0.076 0.799-0.076 1.235 0 0.285 0.012 0.567 0.035 0.846l-0.002-0.037z"></path>
<path fill="#fff" d="M29.953 16.862s4.524-2.972 3.467-9.164c-1.016-4.494-3.436-5.973-3.699-6.539-0.207-0.32-0.397-0.687-0.551-1.074l-0.015-0.043 0.188 12.513c0.015 0.029-0.377 3.842 0.609 4.306z"></path>
<path fill="#499d4a" d="M29.953 16.862s4.524-2.972 3.467-9.164c-1.016-4.494-3.436-5.973-3.699-6.539-0.207-0.32-0.397-0.687-0.551-1.074l-0.015-0.043 0.188 12.513c0.015 0.029-0.377 3.842 0.609 4.306z"></path>
<path fill="#fff" d="M28.894 17.037s-4.248-2.898-4.002-8.004 3.234-7.612 3.813-8.076c0.267-0.216 0.436-0.543 0.436-0.91 0-0.017 0-0.033-0.001-0.049v0.002c0.259 0.566 0.217 8.482 0.246 9.424 0.116 3.581-0.203 6.93-0.493 7.612z"></path>
<path fill="#58aa50" d="M28.894 17.037s-4.248-2.898-4.002-8.004 3.234-7.612 3.813-8.076c0.267-0.216 0.436-0.543 0.436-0.91 0-0.017 0-0.033-0.001-0.049v0.002c0.259 0.566 0.217 8.482 0.246 9.424 0.116 3.581-0.203 6.93-0.493 7.612z"></path>
</svg>
