<!-- Generated by IcoMoon.io -->
<svg version="1.1" xmlns="http://www.w3.org/2000/svg" width="28" height="32" viewBox="0 0 28 32">
<title>nodeJS-icon</title>
<path fill="#87bf00" d="M14.106 32c-0.013 0-0.028 0-0.043 0-0.448 0-0.866-0.131-1.217-0.356l0.009 0.005-3.901-2.304c-0.6-0.351-0.3-0.451-0.1-0.501 0.671-0.227 1.25-0.497 1.792-0.823l-0.041 0.023c0.034-0.021 0.076-0.033 0.12-0.033 0.072 0 0.136 0.032 0.179 0.083v0l3.001 1.803c0.051 0.024 0.112 0.038 0.175 0.038s0.124-0.014 0.178-0.039l-0.003 0.001 11.705-6.761c0.107-0.064 0.182-0.172 0.2-0.298v-13.524c0.001-0.011 0.002-0.023 0.002-0.036 0-0.126-0.085-0.232-0.2-0.264h-0.002l-11.655-6.811c-0.051-0.024-0.112-0.038-0.175-0.038s-0.124 0.014-0.178 0.039l0.003-0.001-11.705 6.711c-0.107 0.064-0.182 0.172-0.2 0.298v13.523c0 0.003 0 0.006 0 0.010 0 0.132 0.082 0.245 0.198 0.29l0.002 0.001 3.2 1.855c1.751 0.851 2.8-0.15 2.8-1.202v-13.272c0-0.003 0-0.005 0-0.008 0-0.189 0.153-0.342 0.342-0.342 0.003 0 0.006 0 0.009 0h1.5c0.002 0 0.005 0 0.008 0 0.189 0 0.342 0.153 0.342 0.342 0 0.003 0 0.006 0 0.009v0 13.321c0 2.354-1.251 3.656-3.451 3.656-0.7 0-1.2 0-2.701-0.751l-3.051-1.753c-0.745-0.442-1.239-1.239-1.248-2.152v-13.522c0-0.917 0.498-1.718 1.239-2.147l0.012-0.006 11.705-6.761c0.356-0.189 0.778-0.3 1.225-0.3s0.87 0.111 1.24 0.307l-0.014-0.007 11.705 6.761c0.746 0.442 1.241 1.239 1.251 2.152v13.523c0 0.917-0.498 1.718-1.239 2.147l-0.012 0.006-11.755 6.811c-0.36 0.189-0.787 0.3-1.24 0.3-0.004 0-0.007 0-0.011 0h0.001z"></path>
<path fill="#87bf00" d="M17.757 22.685c-5.102 0-6.203-2.352-6.203-4.307 0-0.003 0-0.006 0-0.008 0-0.189 0.153-0.342 0.342-0.342 0.003 0 0.006 0 0.009 0h1.5c0.175 0.004 0.32 0.131 0.35 0.298v0.002c0.2 1.552 0.9 2.304 4 2.304 2.451 0 3.501-0.551 3.501-1.855 0-0.751-0.3-1.302-4.152-1.703-3.2-0.3-5.202-1.001-5.202-3.606 0-2.354 2-3.756 5.352-3.756 3.752 0 5.602 1.302 5.852 4.107 0 0.003 0 0.005 0 0.008 0 0.189-0.153 0.342-0.342 0.342-0.003 0-0.006 0-0.009 0h-1.499c-0.161-0.002-0.297-0.105-0.349-0.248l-0.001-0.003c-0.35-1.603-1.251-2.153-3.652-2.153-2.701 0-3.001 0.952-3.001 1.653 0 0.851 0.35 1.102 4 1.603 3.6 0.451 5.302 1.152 5.302 3.656 0.002 2.556-2.099 4.008-5.801 4.008z"></path>
</svg>
