<!-- Generated by IcoMoon.io -->
<svg version="1.1" xmlns="http://www.w3.org/2000/svg" width="32" height="32" viewBox="0 0 32 32">
<title>phone-icon</title>
<path fill="#98ca6c" d="M31.456 26.918c0.337-0.344 0.544-0.815 0.544-1.334 0-0.614-0.29-1.16-0.741-1.509l-0.004-0.003-5.034-3.867c-0.318-0.246-0.722-0.395-1.162-0.395-0.461 0-0.884 0.164-1.214 0.437l0.003-0.003-1.936 1.593c-0.442 0.362-1.014 0.582-1.637 0.582-0.48 0-0.929-0.13-1.315-0.358l0.012 0.007c-2.114-1.22-7.82-6.926-9.040-9.040-0.221-0.373-0.351-0.822-0.351-1.302 0-0.623 0.22-1.195 0.587-1.642l-0.004 0.005 1.593-1.937c0.27-0.327 0.434-0.75 0.434-1.212 0-0.439-0.149-0.844-0.398-1.167l0.003 0.004-3.867-5.034c-0.352-0.455-0.899-0.745-1.513-0.745-0.519 0-0.99 0.207-1.334 0.544v0l-4.009 3.924c-0.663 0.649-1.074 1.554-1.074 2.555 0 0.657 0.177 1.273 0.487 1.802l-0.009-0.017 3.674 6.378c4.538 6.193 7.093 8.887 12.665 12.665l6.378 3.674c0.512 0.3 1.128 0.477 1.785 0.477 1.001 0 1.905-0.411 2.554-1.074l0.001-0.001z"></path>
</svg>
