<!-- Generated by IcoMoon.io -->
<svg version="1.1" xmlns="http://www.w3.org/2000/svg" width="32" height="32" viewBox="0 0 32 32">
<title>school-icon</title>
<path fill="#e1e1e1" d="M32.127 11.857h-9.689v-5.788l-6.375-6.069-6.375 6.069v5.788h-9.689v7.904h9.689v10.199h-7.649v-8.159h-2.040v10.199h32.127v-10.199h-2.040v8.159h-7.649v-10.199h9.689zM9.689 17.721h-7.649v-3.825h7.649zM20.398 29.96h-3.315v-5.61h-2.040v5.61h-3.315v-23.025l4.335-4.131 4.335 4.131zM30.088 17.721h-7.649v-3.825h7.649z"></path>
<path fill="#e1e1e1" d="M4.59 24.351h2.55v2.55h-2.55v-2.55z"></path>
<path fill="#e1e1e1" d="M24.988 24.351h2.55v2.55h-2.55v-2.55z"></path>
<path fill="#e1e1e1" d="M15.044 7.012h2.040v2.040h-2.040v-2.040z"></path>
</svg>
